<?xml version="1.0" encoding="UTF-8"?>
<svg width="845px" height="1792px" viewBox="0 0 845 1792" version="1.1" xmlns="http://www.w3.org/2000/svg" xmlns:xlink="http://www.w3.org/1999/xlink">
    <title>line bg</title>
    <g id="create-profile" stroke="none" stroke-width="1" fill="none" fill-rule="evenodd" opacity="0.382891567" stroke-dasharray="3,5">
        <g id="01-Login" transform="translate(-264.000000, -648.000000)" stroke="#C6C6C6" stroke-width="3">
            <path d="M717.246094,650.453125 C589.67678,652.784079 515.555849,653.966371 494.883301,654 C441.961426,657.216797 407.693359,761.527344 501,789.504986 C714.986328,831.265625 812,805.652587 933,942.576293 C1013.66667,1033.85876 989.166667,1152.33333 859.5,1298 C805.102829,1361.22957 694.936162,1407.89624 529,1438 C280.095757,1483.15564 157,1806 389,1989.47531 C469.882813,2065.03781 1003.81445,2074.45117 1081,2160.30469 C1158.18555,2246.1582 1047.21094,2374.26172 943.173828,2366.4707 C873.815755,2361.27669 724.385579,2361.27669 494.883301,2366.4707 C372.143392,2366.4707 323.515625,2392.11849 349,2443.41406" id="line-bg"></path>
        </g>
    </g>
</svg>