<?xml version="1.0" encoding="UTF-8"?>
<svg width="271px" height="265px" viewBox="0 0 271 265" version="1.1" xmlns="http://www.w3.org/2000/svg" xmlns:xlink="http://www.w3.org/1999/xlink">
    <title>6B0E8B65-3D87-492D-8329-8A9FB4ECDD72</title>
    <g id="create-profile" stroke="none" stroke-width="1" fill="none" fill-rule="evenodd" opacity="0.31766183">
        <g id="01-Login" transform="translate(-448.000000, -937.000000)" fill="#ED9896">
            <g id="Group-11" transform="translate(357.000000, 907.000000)">
                <g id="Group-5" transform="translate(82.000000, 0.000000)">
                    <g id="Group-26" transform="translate(9.739553, 30.583911)">
                        <path d="M62.2604466,263.044996 C136.266603,263.044996 253.666697,127.623256 253.666697,59.4160893 C253.666697,-8.79107725 175.266603,0.416089348 101.260447,0.416089348 C27.2542902,0.416089348 0.805121959,24.4972378 0.805121959,92.7044044 C0.805121959,160.911571 -11.7457098,263.044996 62.2604466,263.044996 Z" id="Oval"></path>
                        <path d="M191.539838,251.416089 C213.129016,251.416089 213.936756,253.382072 213.936756,233.416089 C213.936756,213.450107 213.129016,208.1218 191.539838,208.1218 C169.950659,208.1218 162.234871,215.170968 162.234871,235.136951 C162.234871,255.102934 169.950659,251.416089 191.539838,251.416089 Z" id="Oval" transform="translate(188.085814, 229.903038) rotate(142.000000) translate(-188.085814, -229.903038) "></path>
                        <path d="M268.186859,234.486389 C268.186859,221.194824 267.655676,217.647714 253.458281,217.647714 C239.260886,217.647714 238.926445,216.91429 238.926445,230.205855 C238.926445,243.49742 268.186859,247.777954 268.186859,234.486389 Z" id="Oval-Copy" transform="translate(253.556652, 230.104719) rotate(171.000000) translate(-253.556652, -230.104719) "></path>
                    </g>
                </g>
            </g>
        </g>
    </g>
</svg>