<?xml version="1.0" encoding="UTF-8"?>
<svg width="16px" height="18px" viewBox="0 0 16 18" version="1.1" xmlns="http://www.w3.org/2000/svg" xmlns:xlink="http://www.w3.org/1999/xlink">
    <!-- Generator: Sketch 52.6 (67491) - http://www.bohemiancoding.com/sketch -->
    <title>icon-delete-black</title>
    <desc>Created with Sketch.</desc>
    <g id="Page-1" stroke="none" stroke-width="1" fill="none" fill-rule="evenodd">
        <g id="icon-delete-black" fill="#000000">
            <path d="M15.1897524,3.11992899 C15.0749909,2.71532725 14.9984833,2.4905485 14.9984833,2.4905485 C14.8741584,2.07246003 14.5585643,2.07246003 14.089955,2.00053083 L11.5508576,1.69932732 C11.2352636,1.64987599 11.2352636,1.64987599 11.1109387,1.39362822 C10.6949284,0.51249554 10.5658217,0 10.1115576,0 L5.18637811,0 C4.73211398,0 4.60778906,0.51249554 4.19177875,1.3981238 C4.06745383,1.64987599 4.06745383,1.64987599 3.75185981,1.70382289 L1.20798068,2.00502641 C0.744153101,2.07695561 0.409432164,2.11741578 0.285107244,2.53550425 C0.285107244,2.53550425 0.227726512,2.71982282 0.108183321,3.11992899 C-0.0448319648,3.6549024 -0.106994424,3.59645993 0.418995619,3.59645993 L14.8789401,3.59645993 C15.4049301,3.6009555 15.3475494,3.6549024 15.1897524,3.11992899 Z" id="Path"></path>
            <path d="M13.596024,5.4 L1.70397604,5.4 C0.904105722,5.4 0.865557755,5.50187431 0.913742714,6.08070562 L1.81480145,17.3146637 C1.89189738,17.8842337 1.94971934,18 2.65803823,18 L12.6419618,18 C13.3502807,18 13.4081026,17.8842337 13.4851986,17.3146637 L14.3862573,6.08070562 C14.4344422,5.49724366 14.3958943,5.4 13.596024,5.4 Z" id="Path"></path>
        </g>
    </g>
</svg>